<svg xmlns="http://www.w3.org/2000/svg" viewBox="0 0 1024 1024" role="img">
  <title>Bezique Score Keeper</title>
  <desc>Square app icon with rounded teal background, two overlapping playing cards (heart and spade) and three score dots.</desc>

  <!-- === BACKGROUND === -->
  <defs>
    <linearGradient id="bg" x1="0" y1="0" x2="1" y2="1">
      <stop offset="0%"  stop-color="#12c2e9"/>
      <stop offset="50%" stop-color="#4bc0c8"/>
      <stop offset="100%" stop-color="#2f80ed"/>
    </linearGradient>
    <filter id="softShadow" x="-20%" y="-20%" width="140%" height="140%" color-interpolation-filters="sRGB">
      <feDropShadow dx="0" dy="12" stdDeviation="24" flood-color="#05325a" flood-opacity="0.25"/>
    </filter>
  </defs>

  <!-- Rounded square background -->
  <rect x="64" y="64" width="896" height="896" rx="180" fill="url(#bg)"/>

  <!-- === CARDS GROUP === -->
  <g filter="url(#softShadow)">
    <!-- Back card -->
    <g transform="translate(260,270) rotate(-10 252 222)">
      <rect x="0" y="0" width="504" height="704" rx="48" fill="#f4f7fb"/>
      <rect x="0" y="0" width="504" height="704" rx="48" fill="none" stroke="#d7deea" stroke-width="12"/>
      <!-- Spade symbol -->
      <g transform="translate(180,220) scale(1.2)">
        <path d="M128 0C64 84 0 126 0 178c0 46 34 82 80 82 20 0 38-6 48-18-6 30-18 60-48 88h96c-30-28-42-58-48-88 10 12 28 18 48 18 46 0 80-36 80-82C256 126 192 84 128 0z" fill="#0e2447"/>
      </g>
    </g>

    <!-- Front card -->
    <g transform="translate(320,240) rotate(12 252 222)">
      <rect x="0" y="0" width="504" height="704" rx="48" fill="#ffffff"/>
      <rect x="0" y="0" width="504" height="704" rx="48" fill="none" stroke="#d7deea" stroke-width="12"/>
      <!-- Heart symbol -->
      <g transform="translate(170,220) scale(1.2)">
        <path d="M128 224s-96-58-128-118C-15 67 18 16 64 16c30 0 48 18 64 40 16-22 34-40 64-40 46 0 79 51 64 90-32 60-128 118-128 118z" fill="#e53935"/>
      </g>

      <!-- Score dots -->
      <g transform="translate(150,520)">
        <circle cx="0"   cy="0" r="16" fill="#0e2447" opacity="0.9"/>
        <circle cx="48"  cy="0" r="16" fill="#0e2447" opacity="0.75"/>
        <circle cx="96"  cy="0" r="16" fill="#0e2447" opacity="0.6"/>
      </g>
    </g>
  </g>

  <!-- Subtle inner shine -->
  <path d="M160,220c120-80,280-120,400-120s280,40,400,120v-60c0-88-72-160-160-160H320c-88,0-160,72-160,160z"
        fill="#ffffff" opacity="0.08"/>

</svg>