<svg viewBox="0 0 1024 1024" xmlns="http://www.w3.org/2000/svg" xmlns:xlink="http://www.w3.org/1999/xlink"><linearGradient id="a" gradientTransform="matrix(896 0 0 -896 -237111 611477)" gradientUnits="userSpaceOnUse" x1="264.7" x2="265.7" y1="682.4" y2="681.4"><stop offset="0" stop-color="#12c2e9"/><stop offset=".5" stop-color="#4bc0c8"/><stop offset="1" stop-color="#2f80ed"/></linearGradient><rect fill="url(#a)" height="896" rx="180" width="896" x="64" y="64"/><rect fill="#f4f7fb" height="704" rx="48" transform="matrix(.98480775 -.17364818 .17364818 .98480775 -99.5 102.2)" width="504" x="282.6" y="268"/><rect fill="none" height="704" rx="48" stroke="#d7deea" stroke-width="12" transform="matrix(.98480775 -.17364818 .17364818 .98480775 -99.5 102.2)" width="504" x="282.6" y="268"/><path d="m592 475.9c-58.1 112.6-125 175.6-114.2 237s57.3 89.8 111.6 80.2 43.7-15 53-31.3c-.8 36.7-8.8 74.7-38.4 114l113.4-20c-41.3-26.8-61.7-59.8-75.1-94 14.3 12.1 36.8 15.4 60.5 11.3 54.4-9.6 87-59.2 77.5-113.6s-95.2-97.8-188.4-183.7z" fill="#0e2447"/><rect fill="#fff" height="504" rx="48" transform="matrix(.20791169 -.9781476 .9781476 .20791169 -144.6 999.7)" width="704" x="193" y="337.2"/><rect fill="none" height="504" rx="48" stroke="#d7deea" stroke-width="12" transform="matrix(.20791169 -.9781476 .9781476 .20791169 -144.6 999.7)" width="704" x="193" y="337.2"/><path d="m586.6 737.9s-98.2-92-120.8-170.4c-7.9-49.5 43.6-101.1 97.6-89.7s51.9 33.1 65.1 62.9c24.3-21.8 49.9-38.5 85.1-31 54 11.5 80 79.6 52.7 121.6-52.5 62.4-179.7 106.6-179.7 106.6z" fill="#e53935"/><g fill="#0e2447"><circle cx="410.3" cy="732.3" opacity=".9" r="16"/><circle cx="457.2" cy="742.3" opacity=".8" r="16"/><circle cx="504.2" cy="752.2" opacity=".6" r="16"/></g><path d="m160 220c120-80 280-120 400-120s280 40 400 120v-60c0-88-72-160-160-160h-480c-88 0-160 72-160 160z" fill="#fff" opacity="0"/></svg>